<svg width="48" height="48" viewBox="0 0 24 24" fill="none" xmlns="http://www.w3.org/2000/svg">
  <rect width="24" height="24" rx="4" fill="#24292e"/>
  <path d="M12 2C6.477 2 2 6.477 2 12C2 16.42 4.865 20.335 8.862 21.79C9.337 21.885 9.522 21.58 9.522 21.315C9.522 21.075 9.515 20.277 9.51 19.44C7.016 19.938 6.38 18.244 6.38 18.244C5.895 17.005 5.278 16.68 5.278 16.68C4.422 16.08 5.338 16.092 5.338 16.092C6.282 16.16 6.785 17.076 6.785 17.076C7.625 18.44 8.88 18.04 9.535 17.78C9.63 17.11 9.89 16.64 10.175 16.39C7.954 16.125 5.62 15.268 5.62 11.67C5.62 10.66 6.01 9.81 6.8 9.15C6.69 8.88 6.425 7.97 6.91 6.73C6.91 6.73 7.7 6.5 9.5 7.66C10.29 7.46 11.15 7.36 12 7.36C12.85 7.36 13.71 7.46 14.5 7.66C16.3 6.5 17.09 6.73 17.09 6.73C17.575 7.97 17.31 8.88 17.2 9.15C18 9.81 18.38 10.66 18.38 11.67C18.38 15.28 16.04 16.125 13.81 16.39C14.17 16.72 14.48 17.33 14.48 18.26C14.48 19.6 14.47 20.68 14.47 21.315C14.47 21.58 14.655 21.89 15.135 21.79C19.14 20.335 22 16.415 22 12C22 6.477 17.523 2 12 2Z" fill="white"/>
</svg>

