<svg width="48" height="48" viewBox="0 0 24 24" fill="none" xmlns="http://www.w3.org/2000/svg">
  <path d="M24 5.457V13.91C24 14.69 23.38 15.31 22.6 15.31H1.4C0.62 15.31 0 14.69 0 13.91V5.457L11.546 12.94L24 5.457Z" fill="#EA4335"/>
  <path d="M24 4.04C24 3.24 23.36 2.6 22.56 2.6H1.44C0.64 2.6 0 3.24 0 4.04V5.46L12 13L24 5.46V4.04Z" fill="#4285F4"/>
  <path d="M0 13.91V22.36C0 23.16 0.64 23.8 1.44 23.8H22.56C23.36 23.8 24 23.16 24 22.36V13.91L12.454 21.393C12.204 21.543 11.796 21.543 11.546 21.393L0 13.91Z" fill="#34A853"/>
  <path d="M0 5.46L12 13L24 5.46V4.04L12 11.58L0 4.04V5.46Z" fill="#FBBC04"/>
</svg>

