<svg width="48" height="48" viewBox="0 0 24 24" fill="none" xmlns="http://www.w3.org/2000/svg">
  <rect width="24" height="24" rx="4" fill="#0A66C2"/>
  <path d="M19 3H5C3.895 3 3 3.895 3 5V19C3 20.105 3.895 21 5 21H19C20.105 21 21 20.105 21 19V5C21 3.895 20.105 3 19 3ZM9 17H6.477V10H9V17ZM7.694 8.717C6.923 8.717 6.408 8.203 6.408 7.533C6.408 6.864 6.922 6.35 7.694 6.35C8.466 6.35 8.98 6.864 8.98 7.533C8.98 8.203 8.465 8.717 7.694 8.717ZM18 17H15.558V13.174C15.558 12.188 15.553 10.97 14.26 10.97C12.961 10.97 12.773 11.988 12.773 13.111V17H10.333V10H12.68V11.126H12.71C13.03 10.5 13.86 9.84 15.134 9.84C17.76 9.84 18 11.5 18 14.41V17Z" fill="white"/>
</svg>

